<svg width="146" height="130" viewBox="0 0 146 130" fill="none" xmlns="http://www.w3.org/2000/svg">
<path d="M15 22.4631L24.833 71C24.833 71 30.9626 62.2364 33.3835 55.1074C35.8044 47.9783 37.2312 34.4899 37.2312 34.4899L54.3321 71C73.1987 48.5054 75.5725 34.2342 71.0055 7" stroke="black" stroke-width="12" stroke-linecap="round" stroke-linejoin="round"/>
<path d="M120 7.46481C120 7.46481 80 -4.49281 80 39.9212C80 84.3352 120 68.107 120 68.107" stroke="black" stroke-width="12" stroke-linecap="round" stroke-linejoin="round"/>
<path d="M1.61719 105.133C1.61719 101.242 2.53906 98.1094 4.38281 95.7344C6.24219 93.3594 8.74219 92.1719 11.8828 92.1719C14.6641 92.1719 16.8281 93.125 18.375 95.0312L18.6562 92.6406H24.7969V117.156C24.7969 119.375 24.2891 121.305 23.2734 122.945C22.2734 124.586 20.8594 125.836 19.0312 126.695C17.2031 127.555 15.0625 127.984 12.6094 127.984C10.75 127.984 8.9375 127.609 7.17188 126.859C5.40625 126.125 4.07031 125.172 3.16406 124L6.16406 119.875C7.85156 121.766 9.89844 122.711 12.3047 122.711C14.1016 122.711 15.5 122.227 16.5 121.258C17.5 120.305 18 118.945 18 117.18V115.82C16.4375 117.586 14.3828 118.469 11.8359 118.469C8.78906 118.469 6.32031 117.281 4.42969 114.906C2.55469 112.516 1.61719 109.352 1.61719 105.414V105.133ZM8.39062 105.625C8.39062 107.922 8.85156 109.727 9.77344 111.039C10.6953 112.336 11.9609 112.984 13.5703 112.984C15.6328 112.984 17.1094 112.211 18 110.664V100C17.0938 98.4531 15.6328 97.6797 13.6172 97.6797C11.9922 97.6797 10.7109 98.3438 9.77344 99.6719C8.85156 101 8.39062 102.984 8.39062 105.625ZM44.7188 118C44.4062 117.391 44.1797 116.633 44.0391 115.727C42.3984 117.555 40.2656 118.469 37.6406 118.469C35.1562 118.469 33.0938 117.75 31.4531 116.312C29.8281 114.875 29.0156 113.062 29.0156 110.875C29.0156 108.188 30.0078 106.125 31.9922 104.688C33.9922 103.25 36.875 102.523 40.6406 102.508H43.7578V101.055C43.7578 99.8828 43.4531 98.9453 42.8438 98.2422C42.25 97.5391 41.3047 97.1875 40.0078 97.1875C38.8672 97.1875 37.9688 97.4609 37.3125 98.0078C36.6719 98.5547 36.3516 99.3047 36.3516 100.258H29.5781C29.5781 98.7891 30.0312 97.4297 30.9375 96.1797C31.8438 94.9297 33.125 93.9531 34.7812 93.25C36.4375 92.5312 38.2969 92.1719 40.3594 92.1719C43.4844 92.1719 45.9609 92.9609 47.7891 94.5391C49.6328 96.1016 50.5547 98.3047 50.5547 101.148V112.141C50.5703 114.547 50.9062 116.367 51.5625 117.602V118H44.7188ZM39.1172 113.289C40.1172 113.289 41.0391 113.07 41.8828 112.633C42.7266 112.18 43.3516 111.578 43.7578 110.828V106.469H41.2266C37.8359 106.469 36.0312 107.641 35.8125 109.984L35.7891 110.383C35.7891 111.227 36.0859 111.922 36.6797 112.469C37.2734 113.016 38.0859 113.289 39.1172 113.289ZM62.1094 92.6406L62.3203 95.4766C64.1172 93.2734 66.5469 92.1719 69.6094 92.1719C72.875 92.1719 75.1172 93.4609 76.3359 96.0391C78.1172 93.4609 80.6562 92.1719 83.9531 92.1719C86.7031 92.1719 88.75 92.9766 90.0938 94.5859C91.4375 96.1797 92.1094 98.5859 92.1094 101.805V118H85.3125V101.828C85.3125 100.391 85.0312 99.3438 84.4688 98.6875C83.9062 98.0156 82.9141 97.6797 81.4922 97.6797C79.4609 97.6797 78.0547 98.6484 77.2734 100.586L77.2969 118H70.5234V101.852C70.5234 100.383 70.2344 99.3203 69.6562 98.6641C69.0781 98.0078 68.0938 97.6797 66.7031 97.6797C64.7812 97.6797 63.3906 98.4766 62.5312 100.07V118H55.7578V92.6406H62.1094ZM109.008 118.469C105.289 118.469 102.258 117.328 99.9141 115.047C97.5859 112.766 96.4219 109.727 96.4219 105.93V105.273C96.4219 102.727 96.9141 100.453 97.8984 98.4531C98.8828 96.4375 100.273 94.8906 102.07 93.8125C103.883 92.7188 105.945 92.1719 108.258 92.1719C111.727 92.1719 114.453 93.2656 116.438 95.4531C118.438 97.6406 119.438 100.742 119.438 104.758V107.523H103.289C103.508 109.18 104.164 110.508 105.258 111.508C106.367 112.508 107.766 113.008 109.453 113.008C112.062 113.008 114.102 112.062 115.57 110.172L118.898 113.898C117.883 115.336 116.508 116.461 114.773 117.273C113.039 118.07 111.117 118.469 109.008 118.469ZM108.234 97.6562C106.891 97.6562 105.797 98.1094 104.953 99.0156C104.125 99.9219 103.594 101.219 103.359 102.906H112.781V102.367C112.75 100.867 112.344 99.7109 111.562 98.8984C110.781 98.0703 109.672 97.6562 108.234 97.6562ZM137.039 110.992C137.039 110.164 136.625 109.516 135.797 109.047C134.984 108.562 133.672 108.133 131.859 107.758C125.828 106.492 122.812 103.93 122.812 100.07C122.812 97.8203 123.742 95.9453 125.602 94.4453C127.477 92.9297 129.922 92.1719 132.938 92.1719C136.156 92.1719 138.727 92.9297 140.648 94.4453C142.586 95.9609 143.555 97.9297 143.555 100.352H136.781C136.781 99.3828 136.469 98.5859 135.844 97.9609C135.219 97.3203 134.242 97 132.914 97C131.773 97 130.891 97.2578 130.266 97.7734C129.641 98.2891 129.328 98.9453 129.328 99.7422C129.328 100.492 129.68 101.102 130.383 101.57C131.102 102.023 132.305 102.422 133.992 102.766C135.68 103.094 137.102 103.469 138.258 103.891C141.836 105.203 143.625 107.477 143.625 110.711C143.625 113.023 142.633 114.898 140.648 116.336C138.664 117.758 136.102 118.469 132.961 118.469C130.836 118.469 128.945 118.094 127.289 117.344C125.648 116.578 124.359 115.539 123.422 114.227C122.484 112.898 122.016 111.469 122.016 109.938H128.438C128.5 111.141 128.945 112.062 129.773 112.703C130.602 113.344 131.711 113.664 133.102 113.664C134.398 113.664 135.375 113.422 136.031 112.938C136.703 112.438 137.039 111.789 137.039 110.992Z" fill="black"/>
</svg>
